<?xml version="1.0" encoding="UTF-8"?>
<svg xmlns="http://www.w3.org/2000/svg" viewBox="0 0 1254 1254" width="1254" height="1254" role="img" aria-label="LifeFi icon only">
  <defs>
    <radialGradient id="blackBg" cx="50%" cy="42%" r="72%">
      <stop offset="0%" stop-color="#171717"/>
      <stop offset="100%" stop-color="#000000"/>
    </radialGradient>
    <linearGradient id="gold" x1="28%" y1="8%" x2="72%" y2="96%">
      <stop offset="0%" stop-color="#fff176"/>
      <stop offset="35%" stop-color="#ffd23f"/>
      <stop offset="70%" stop-color="#e0a000"/>
      <stop offset="100%" stop-color="#a96e00"/>
    </linearGradient>
  </defs>
  <rect x="68.97" y="68.97" width="1116.06" height="1116.06" rx="137.94" fill="url(#blackBg)" stroke="#2a2a2a" stroke-width="4.39"/>
  <g fill="url(#gold)" fill-rule="evenodd">
      <path d="M 995.61 205.73 L 843.76 264.52 L 880.49 301.25 L 570.67 623.33 L 498.42 549.85 L 330.64 721.29 L 238.80 624.55 L 638.02 214.31 L 781.30 357.59 L 800.89 335.54 L 639.25 171.45 L 199.61 627.00 L 656.39 1096.03 L 1105.82 623.33 L 969.89 483.72 L 971.12 522.91 L 1069.08 624.55 L 931.93 765.38 L 931.93 418.82 L 856.00 420.04 L 856.00 847.43 L 816.81 885.39 L 816.81 541.28 L 743.34 541.28 L 743.34 964.99 L 701.70 1004.18 L 701.70 636.80 L 629.45 638.02 L 627.00 1025.00 L 589.04 985.81 L 589.04 700.48 L 515.56 700.48 L 513.11 909.88 L 475.15 869.47 L 473.92 753.13 L 401.67 754.36 L 400.45 793.55 L 351.46 740.89 L 497.19 591.49 L 573.12 663.74 L 908.66 322.07 L 947.85 362.48 Z"/>
      <path d="M 612.30 371.06 L 609.86 373.51 L 604.96 372.28 L 600.06 374.73 L 597.61 378.40 L 593.94 379.63 L 592.71 383.30 L 590.26 382.08 L 586.59 388.20 L 584.14 386.98 L 581.69 391.88 L 576.79 393.10 L 575.57 396.77 L 573.12 395.55 L 565.77 402.90 L 551.07 434.74 L 551.07 439.63 L 554.75 443.31 L 558.42 444.53 L 564.54 439.63 L 576.79 412.69 L 585.36 405.35 L 595.16 401.67 L 585.36 449.43 L 585.36 458.00 L 587.81 460.45 L 589.04 482.50 L 587.81 498.42 L 569.44 547.40 L 570.67 554.75 L 575.57 558.42 L 580.46 558.42 L 585.36 553.52 L 587.81 543.73 L 604.96 502.09 L 609.86 456.78 L 635.57 464.13 L 638.02 466.58 L 631.90 494.74 L 631.90 502.09 L 636.80 506.99 L 641.70 506.99 L 646.59 502.09 L 656.39 462.90 L 656.39 456.78 L 653.94 453.11 L 622.10 440.86 L 620.88 434.74 L 624.55 416.37 L 629.45 411.47 L 634.35 420.04 L 663.74 420.04 L 667.41 416.37 L 667.41 410.24 L 663.74 406.57 L 642.92 407.79 L 639.25 404.12 L 629.45 380.85 L 620.88 373.51 L 618.43 374.73 L 617.20 372.28 L 613.53 373.51 Z"/>
      <path d="M 521.68 450.66 L 519.23 453.11 L 516.79 458.00 L 504.54 488.62 L 504.54 492.29 L 506.99 494.74 L 513.11 495.97 L 521.68 500.87 L 551.07 513.11 L 555.97 513.11 L 558.42 510.66 L 571.89 478.82 L 571.89 476.37 L 573.12 473.92 L 571.89 471.47 L 566.99 469.03 L 564.54 469.03 L 562.10 467.80 L 559.65 465.35 L 559.65 462.90 L 560.87 461.68 L 562.10 456.78 L 560.87 454.33 L 557.20 451.88 L 559.65 454.33 L 559.65 459.23 L 558.42 461.68 L 555.97 464.13 L 553.52 464.13 L 542.50 459.23 L 540.05 455.55 L 541.28 453.11 L 546.18 448.21 L 549.85 448.21 L 546.18 446.98 L 543.73 448.21 L 540.05 451.88 L 537.60 458.00 L 535.15 458.00 L 532.71 454.33 L 529.03 453.11 L 525.36 450.66 Z"/>
      <path d="M 624.55 325.75 L 623.33 328.20 L 620.88 326.97 L 618.43 328.20 L 617.20 331.87 L 613.53 331.87 L 613.53 335.54 L 611.08 335.54 L 609.86 337.99 L 608.63 341.67 L 608.63 349.01 L 609.86 352.69 L 612.30 357.59 L 615.98 361.26 L 619.65 363.71 L 623.33 364.93 L 631.90 364.93 L 635.57 363.71 L 640.47 361.26 L 644.14 357.59 L 646.59 352.69 L 647.82 349.01 L 647.82 341.67 L 645.37 340.44 L 646.59 337.99 L 644.14 333.09 L 640.47 329.42 L 635.57 326.97 L 631.90 325.75 L 630.67 328.20 Z"/>
  </g>
</svg>
