<?xml version="1.0" encoding="UTF-8"?>
<svg xmlns="http://www.w3.org/2000/svg"
     viewBox="0 0 1254 1254"
     width="1254"
     height="1254"
     role="img"
     aria-label="LifeFi logo">

  <defs>
    <radialGradient id="blackBg" cx="50%" cy="42%" r="76%">
      <stop offset="0%" stop-color="#171717"/>
      <stop offset="100%" stop-color="#000000"/>
    </radialGradient>

    <linearGradient id="gold" x1="25%" y1="5%" x2="75%" y2="98%">
      <stop offset="0%" stop-color="#fff176"/>
      <stop offset="35%" stop-color="#ffd23f"/>
      <stop offset="72%" stop-color="#e0a000"/>
      <stop offset="100%" stop-color="#a96e00"/>
    </linearGradient>
  </defs>

  <rect x="15.05"
        y="15.05"
        width="1223.90"
        height="1223.90"
        rx="137.94"
        fill="url(#blackBg)"
        stroke="#2a2a2a"
        stroke-width="3.76"/>

  <g fill="url(#gold)">
    <path d="M 972.00 1154.00 L 973.00 1156.00 L 994.00 1156.00 Z" fill-rule="evenodd"/>
    <path d="M 920.00 1154.00 L 919.00 1185.00 L 908.00 1185.00 L 920.00 1184.00 Z" fill-rule="evenodd"/>
    <path d="M 521.00 1154.00 L 522.00 1156.00 L 543.00 1156.00 Z" fill-rule="evenodd"/>
    <path d="M 342.00 1150.00 L 341.00 1185.00 L 330.00 1185.00 L 342.00 1184.00 Z" fill-rule="evenodd"/>
    <path d="M 939.00 1136.00 L 951.00 1138.00 L 950.00 1136.00 Z" fill-rule="evenodd"/>
    <path d="M 809.00 1136.00 L 798.00 1137.00 L 798.00 1204.00 L 799.00 1136.00 Z" fill-rule="evenodd"/>
    <path d="M 274.00 1136.00 L 286.00 1137.00 L 286.00 1184.00 L 285.00 1136.00 Z" fill-rule="evenodd"/>
    <path d="M 856.00 1117.00 L 857.00 1185.00 L 868.00 1185.00 L 856.00 1184.00 Z" fill-rule="evenodd"/>
    <path d="M 674.00 1078.00 L 675.00 1080.00 L 1023.00 1079.00 L 1023.00 1076.00 L 675.00 1076.00 Z" fill-rule="evenodd"/>
    <path d="M 229.00 1076.00 L 230.00 1080.00 L 576.00 1079.00 L 576.00 1076.00 L 574.00 1075.00 Z" fill-rule="evenodd"/>
    <path d="M 619.00 1062.00 L 616.00 1063.00 L 613.00 1065.00 L 611.00 1067.00 L 608.00 1073.00 L 608.00 1080.00 L 609.00 1083.00 L 611.00 1086.00 L 613.00 1088.00 L 616.00 1090.00 L 619.00 1091.00 L 626.00 1091.00 L 629.00 1090.00 L 631.00 1089.00 L 635.00 1085.00 L 637.00 1081.00 L 637.00 1072.00 L 635.00 1068.00 L 631.00 1064.00 L 627.00 1062.00 Z" fill-rule="evenodd"/>
    <path d="M 982.00 889.00 L 979.00 890.00 L 979.00 1038.00 L 1020.00 1038.00 L 1019.00 889.00 L 987.00 890.00 Z" fill-rule="evenodd"/>
    <path d="M 411.00 889.00 L 410.00 891.00 L 411.00 905.00 L 410.00 1038.00 L 451.00 1038.00 L 451.00 889.00 Z" fill-rule="evenodd"/>
    <path d="M 652.00 891.00 L 636.00 900.00 L 622.00 913.00 L 617.00 920.00 L 608.00 941.00 L 605.00 964.00 L 606.00 977.00 L 611.00 995.00 L 616.00 1005.00 L 624.00 1016.00 L 635.00 1026.00 L 653.00 1036.00 L 667.00 1040.00 L 701.00 1041.00 L 720.00 1036.00 L 739.00 1025.00 L 754.00 1010.00 L 727.00 994.00 L 717.00 1003.00 L 703.00 1009.00 L 679.00 1010.00 L 671.00 1008.00 L 663.00 1004.00 L 654.00 996.00 L 646.00 981.00 L 647.00 976.00 L 760.00 975.00 L 760.00 955.00 L 758.00 941.00 L 749.00 919.00 L 744.00 912.00 L 729.00 898.00 L 707.00 888.00 L 698.00 886.00 L 672.00 886.00 Z M 646.00 944.00 L 647.00 941.00 L 650.00 935.00 L 652.00 932.00 L 661.00 923.00 L 664.00 921.00 L 671.00 918.00 L 681.00 916.00 L 688.00 916.00 L 695.00 917.00 L 703.00 920.00 L 710.00 925.00 L 714.00 929.00 L 717.00 933.00 L 720.00 939.00 L 721.00 942.00 L 721.00 945.00 L 722.00 946.00 L 721.00 949.00 L 646.00 948.00 Z" fill-rule="evenodd"/>
    <path d="M 947.00 831.00 L 799.00 831.00 L 799.00 1038.00 L 841.00 1038.00 L 842.00 958.00 L 931.00 958.00 L 931.00 923.00 L 841.00 922.00 L 842.00 868.00 L 946.00 869.00 Z" fill-rule="evenodd"/>
    <path d="M 229.00 831.00 L 229.00 1039.00 L 374.00 1038.00 L 373.00 1001.00 L 274.00 1000.00 L 274.00 831.00 Z" fill-rule="evenodd"/>
    <path d="M 586.00 831.00 L 570.00 828.00 L 551.00 828.00 L 540.00 830.00 L 526.00 836.00 L 517.00 844.00 L 510.00 857.00 L 507.00 869.00 L 505.00 890.00 L 482.00 890.00 L 483.00 923.00 L 506.00 924.00 L 506.00 1038.00 L 546.00 1038.00 L 546.00 932.00 L 548.00 923.00 L 587.00 923.00 L 587.00 890.00 L 554.00 890.00 L 547.00 888.00 L 547.00 876.00 L 550.00 869.00 L 555.00 864.00 L 560.00 862.00 L 571.00 861.00 L 587.00 865.00 Z" fill-rule="evenodd"/>
    <path d="M 992.00 825.00 L 986.00 828.00 L 984.00 830.00 L 983.00 830.00 L 979.00 835.00 L 977.00 839.00 L 976.00 843.00 L 976.00 850.00 L 977.00 854.00 L 980.00 860.00 L 984.00 864.00 L 987.00 866.00 L 991.00 868.00 L 994.00 869.00 L 1004.00 869.00 L 1008.00 868.00 L 1014.00 865.00 L 1020.00 859.00 L 1022.00 855.00 L 1023.00 851.00 L 1023.00 842.00 L 1022.00 839.00 L 1020.00 835.00 L 1017.00 831.00 L 1013.00 828.00 L 1007.00 825.00 L 1000.00 824.00 L 998.00 824.00 Z" fill-rule="evenodd"/>
    <path d="M 419.00 827.00 L 416.00 829.00 L 411.00 834.00 L 408.00 840.00 L 407.00 844.00 L 407.00 850.00 L 408.00 854.00 L 411.00 860.00 L 416.00 865.00 L 419.00 867.00 L 425.00 869.00 L 438.00 869.00 L 441.00 868.00 L 447.00 865.00 L 452.00 860.00 L 455.00 854.00 L 456.00 849.00 L 456.00 845.00 L 455.00 840.00 L 453.00 836.00 L 451.00 833.00 L 447.00 829.00 L 439.00 825.00 L 433.00 824.00 L 431.00 824.00 L 425.00 825.00 Z" fill-rule="evenodd"/>
    <path d="M 515.00 319.00 L 512.00 325.00 L 502.00 350.00 L 502.00 355.00 L 504.00 357.00 L 543.00 373.00 L 546.00 374.00 L 548.00 374.00 L 551.00 371.00 L 563.00 341.00 L 563.00 338.00 L 560.00 335.00 L 553.00 333.00 L 551.00 331.00 L 551.00 329.00 L 553.00 326.00 L 553.00 321.00 L 550.00 318.00 L 552.00 321.00 L 552.00 326.00 L 550.00 330.00 L 548.00 331.00 L 543.00 328.00 L 541.00 328.00 L 535.00 325.00 L 534.00 322.00 L 536.00 318.00 L 538.00 316.00 L 542.00 315.00 L 540.00 314.00 L 536.00 316.00 L 534.00 319.00 L 534.00 321.00 L 532.00 323.00 L 530.00 323.00 L 527.00 322.00 L 522.00 319.00 L 519.00 318.00 Z M 529.00 341.00 L 532.00 341.00 L 536.00 343.00 L 537.00 348.00 L 535.00 350.00 L 532.00 350.00 L 529.00 348.00 L 526.00 347.00 L 526.00 345.00 L 527.00 343.00 Z" fill-rule="evenodd"/>
    <path d="M 607.00 248.00 L 595.00 248.00 L 563.00 269.00 L 558.00 274.00 L 545.00 302.00 L 545.00 309.00 L 549.00 312.00 L 552.00 312.00 L 556.00 308.00 L 567.00 284.00 L 579.00 275.00 L 586.00 273.00 L 575.00 321.00 L 578.00 325.00 L 579.00 360.00 L 560.00 405.00 L 561.00 410.00 L 565.00 413.00 L 571.00 413.00 L 574.00 410.00 L 594.00 364.00 L 598.00 324.00 L 602.00 324.00 L 623.00 332.00 L 624.00 334.00 L 617.00 358.00 L 618.00 366.00 L 623.00 369.00 L 629.00 367.00 L 641.00 328.00 L 641.00 325.00 L 637.00 320.00 L 610.00 310.00 L 608.00 308.00 L 609.00 300.00 L 613.00 286.00 L 616.00 282.00 L 620.00 290.00 L 648.00 290.00 L 651.00 287.00 L 651.00 281.00 L 646.00 277.00 L 628.00 277.00 L 616.00 254.00 Z" fill-rule="evenodd"/>
    <path d="M 611.00 206.00 L 607.00 208.00 L 601.00 214.00 L 599.00 219.00 L 599.00 227.00 L 600.00 231.00 L 602.00 234.00 L 607.00 239.00 L 611.00 241.00 L 622.00 241.00 L 625.00 240.00 L 628.00 238.00 L 632.00 234.00 L 634.00 230.00 L 635.00 227.00 L 635.00 221.00 L 634.00 217.00 L 632.00 213.00 L 627.00 208.00 L 623.00 206.00 L 619.00 205.00 L 615.00 205.00 Z" fill-rule="evenodd"/>
    <path d="M 937.00 89.00 L 809.00 142.00 L 839.00 174.00 L 560.00 464.00 L 500.00 404.00 L 361.00 547.00 L 279.00 464.00 L 630.00 100.00 L 752.00 222.00 L 767.00 207.00 L 630.00 66.00 L 247.00 467.00 L 638.00 861.00 L 1032.00 461.00 L 910.00 334.00 L 910.00 370.00 L 999.00 462.00 L 875.00 587.00 L 875.00 276.00 L 811.00 276.00 L 811.00 654.00 L 775.00 688.00 L 775.00 381.00 L 712.00 381.00 L 712.00 754.00 L 676.00 788.00 L 676.00 476.00 L 613.00 476.00 L 611.00 803.00 L 577.00 768.00 L 577.00 532.00 L 515.00 533.00 L 513.00 705.00 L 481.00 672.00 L 481.00 575.00 L 420.00 575.00 L 418.00 606.00 L 379.00 564.00 L 500.00 439.00 L 560.00 498.00 L 860.00 188.00 L 897.00 224.00 Z" fill-rule="evenodd"/>
  </g>

  <g>
    <path d="M 939.00 1137.00 L 939.00 1185.00 L 950.00 1185.00 L 950.00 1136.00 Z" fill="#ffffff" fill-rule="evenodd"/>
    <path d="M 880.00 1137.00 L 881.00 1185.00 L 892.00 1184.00 L 891.00 1136.00 Z" fill="#ffffff" fill-rule="evenodd"/>
    <path d="M 694.00 1136.00 L 693.00 1137.00 L 690.00 1137.00 L 691.00 1185.00 L 701.00 1185.00 L 701.00 1136.00 Z" fill="#ffffff" fill-rule="evenodd"/>
    <path d="M 277.00 1136.00 L 276.00 1137.00 L 274.00 1137.00 L 275.00 1185.00 L 285.00 1185.00 L 285.00 1136.00 Z" fill="#ffffff" fill-rule="evenodd"/>
    <path d="M 983.00 1135.00 L 974.00 1137.00 L 970.00 1139.00 L 965.00 1144.00 L 962.00 1149.00 L 960.00 1156.00 L 960.00 1166.00 L 961.00 1170.00 L 964.00 1176.00 L 968.00 1181.00 L 971.00 1183.00 L 976.00 1185.00 L 981.00 1186.00 L 987.00 1186.00 L 992.00 1185.00 L 997.00 1183.00 L 1000.00 1181.00 L 1004.00 1176.00 L 996.00 1171.00 L 993.00 1174.00 L 989.00 1176.00 L 984.00 1177.00 L 980.00 1176.00 L 976.00 1174.00 L 972.00 1169.00 L 973.00 1164.00 L 1006.00 1164.00 L 1006.00 1154.00 L 1005.00 1150.00 L 1002.00 1144.00 L 997.00 1139.00 L 991.00 1136.00 Z M 972.00 1152.00 L 974.00 1149.00 L 976.00 1147.00 L 980.00 1145.00 L 987.00 1145.00 L 989.00 1146.00 L 994.00 1151.00 L 995.00 1153.00 L 995.00 1155.00 L 992.00 1157.00 L 975.00 1157.00 L 973.00 1156.00 Z" fill="#ffffff" fill-rule="evenodd"/>
    <path d="M 835.00 1137.00 L 832.00 1136.00 L 828.00 1136.00 L 827.00 1135.00 L 824.00 1135.00 L 823.00 1136.00 L 819.00 1136.00 L 810.00 1140.00 L 809.00 1136.00 L 799.00 1136.00 L 799.00 1204.00 L 810.00 1204.00 L 812.00 1181.00 L 819.00 1185.00 L 823.00 1186.00 L 828.00 1186.00 L 837.00 1183.00 L 843.00 1177.00 L 846.00 1171.00 L 847.00 1167.00 L 847.00 1154.00 L 845.00 1148.00 L 843.00 1144.00 L 838.00 1139.00 Z M 818.00 1146.00 L 827.00 1146.00 L 829.00 1147.00 L 833.00 1151.00 L 835.00 1155.00 L 835.00 1167.00 L 834.00 1169.00 L 828.00 1175.00 L 825.00 1176.00 L 820.00 1176.00 L 817.00 1175.00 L 811.00 1169.00 L 810.00 1167.00 L 809.00 1160.00 L 810.00 1155.00 L 811.00 1152.00 L 816.00 1147.00 Z" fill="#ffffff" fill-rule="evenodd"/>
    <path d="M 713.00 1137.00 L 714.00 1185.00 L 725.00 1184.00 L 725.00 1153.00 L 726.00 1151.00 L 732.00 1146.00 L 739.00 1146.00 L 744.00 1152.00 L 745.00 1185.00 L 756.00 1184.00 L 756.00 1153.00 L 757.00 1151.00 L 763.00 1146.00 L 770.00 1146.00 L 775.00 1152.00 L 776.00 1185.00 L 787.00 1184.00 L 787.00 1151.00 L 786.00 1146.00 L 784.00 1142.00 L 779.00 1137.00 L 772.00 1135.00 L 768.00 1135.00 L 760.00 1138.00 L 754.00 1143.00 L 748.00 1137.00 L 746.00 1136.00 L 742.00 1136.00 L 741.00 1135.00 L 734.00 1136.00 L 725.00 1140.00 L 724.00 1136.00 Z" fill="#ffffff" fill-rule="evenodd"/>
    <path d="M 580.00 1135.00 L 574.00 1136.00 L 570.00 1138.00 L 568.00 1140.00 L 567.00 1140.00 L 566.00 1141.00 L 566.00 1142.00 L 564.00 1144.00 L 563.00 1147.00 L 563.00 1153.00 L 565.00 1158.00 L 568.00 1161.00 L 575.00 1164.00 L 582.00 1165.00 L 587.00 1167.00 L 589.00 1169.00 L 590.00 1172.00 L 589.00 1174.00 L 587.00 1176.00 L 585.00 1177.00 L 579.00 1177.00 L 574.00 1175.00 L 570.00 1171.00 L 568.00 1171.00 L 565.00 1174.00 L 564.00 1174.00 L 562.00 1177.00 L 564.00 1179.00 L 564.00 1180.00 L 565.00 1181.00 L 573.00 1185.00 L 578.00 1186.00 L 585.00 1186.00 L 594.00 1183.00 L 599.00 1178.00 L 600.00 1176.00 L 600.00 1166.00 L 599.00 1164.00 L 595.00 1160.00 L 589.00 1157.00 L 582.00 1156.00 L 577.00 1154.00 L 574.00 1151.00 L 574.00 1149.00 L 575.00 1147.00 L 578.00 1145.00 L 585.00 1145.00 L 592.00 1150.00 L 595.00 1147.00 L 599.00 1145.00 L 599.00 1143.00 L 595.00 1139.00 L 589.00 1136.00 Z" fill="#ffffff" fill-rule="evenodd"/>
    <path d="M 531.00 1135.00 L 530.00 1136.00 L 526.00 1136.00 L 519.00 1139.00 L 513.00 1145.00 L 511.00 1149.00 L 509.00 1155.00 L 509.00 1166.00 L 510.00 1170.00 L 513.00 1176.00 L 516.00 1180.00 L 525.00 1185.00 L 530.00 1186.00 L 537.00 1186.00 L 544.00 1184.00 L 549.00 1181.00 L 552.00 1175.00 L 545.00 1171.00 L 542.00 1174.00 L 538.00 1176.00 L 529.00 1176.00 L 525.00 1174.00 L 523.00 1172.00 L 521.00 1169.00 L 521.00 1164.00 L 555.00 1164.00 L 555.00 1153.00 L 553.00 1147.00 L 551.00 1144.00 L 546.00 1139.00 L 543.00 1137.00 L 540.00 1136.00 Z M 521.00 1152.00 L 522.00 1150.00 L 525.00 1147.00 L 529.00 1145.00 L 536.00 1145.00 L 540.00 1147.00 L 542.00 1149.00 L 544.00 1153.00 L 543.00 1156.00 L 521.00 1155.00 Z" fill="#ffffff" fill-rule="evenodd"/>
    <path d="M 480.00 1135.00 L 475.00 1136.00 L 468.00 1139.00 L 462.00 1145.00 L 459.00 1151.00 L 458.00 1155.00 L 458.00 1167.00 L 459.00 1171.00 L 461.00 1175.00 L 464.00 1178.00 L 464.00 1179.00 L 466.00 1181.00 L 472.00 1184.00 L 478.00 1186.00 L 485.00 1186.00 L 490.00 1185.00 L 496.00 1182.00 L 501.00 1177.00 L 501.00 1176.00 L 503.00 1174.00 L 501.00 1172.00 L 497.00 1170.00 L 495.00 1170.00 L 493.00 1169.00 L 489.00 1174.00 L 484.00 1176.00 L 480.00 1176.00 L 477.00 1175.00 L 475.00 1173.00 L 474.00 1173.00 L 473.00 1172.00 L 473.00 1171.00 L 471.00 1169.00 L 469.00 1164.00 L 469.00 1157.00 L 471.00 1152.00 L 476.00 1147.00 L 478.00 1146.00 L 486.00 1146.00 L 488.00 1147.00 L 494.00 1152.00 L 503.00 1147.00 L 501.00 1145.00 L 501.00 1144.00 L 496.00 1139.00 L 489.00 1136.00 L 484.00 1135.00 Z" fill="#ffffff" fill-rule="evenodd"/>
    <path d="M 442.00 1138.00 L 438.00 1136.00 L 431.00 1135.00 L 426.00 1136.00 L 416.00 1141.00 L 416.00 1136.00 L 405.00 1137.00 L 406.00 1185.00 L 417.00 1184.00 L 417.00 1153.00 L 418.00 1151.00 L 422.00 1147.00 L 424.00 1146.00 L 431.00 1146.00 L 433.00 1147.00 L 436.00 1150.00 L 437.00 1152.00 L 438.00 1185.00 L 449.00 1184.00 L 449.00 1151.00 L 448.00 1146.00 L 446.00 1142.00 Z" fill="#ffffff" fill-rule="evenodd"/>
    <path d="M 356.00 1141.00 L 354.00 1143.00 L 353.00 1145.00 L 356.00 1148.00 L 361.00 1151.00 L 365.00 1147.00 L 369.00 1145.00 L 376.00 1145.00 L 378.00 1146.00 L 382.00 1150.00 L 383.00 1153.00 L 382.00 1156.00 L 373.00 1157.00 L 365.00 1157.00 L 361.00 1158.00 L 357.00 1160.00 L 353.00 1164.00 L 351.00 1170.00 L 351.00 1174.00 L 354.00 1181.00 L 355.00 1182.00 L 356.00 1182.00 L 358.00 1184.00 L 364.00 1186.00 L 370.00 1186.00 L 374.00 1185.00 L 383.00 1181.00 L 384.00 1185.00 L 394.00 1184.00 L 394.00 1153.00 L 393.00 1147.00 L 391.00 1143.00 L 386.00 1138.00 L 381.00 1136.00 L 376.00 1136.00 L 375.00 1135.00 L 371.00 1135.00 L 370.00 1136.00 L 365.00 1136.00 L 362.00 1137.00 Z M 363.00 1174.00 L 363.00 1168.00 L 365.00 1166.00 L 369.00 1164.00 L 383.00 1165.00 L 383.00 1168.00 L 382.00 1171.00 L 377.00 1176.00 L 375.00 1177.00 L 366.00 1177.00 Z" fill="#ffffff" fill-rule="evenodd"/>
    <path d="M 298.00 1137.00 L 299.00 1185.00 L 309.00 1184.00 L 309.00 1155.00 L 310.00 1152.00 L 316.00 1146.00 L 324.00 1146.00 L 326.00 1147.00 L 329.00 1150.00 L 330.00 1152.00 L 331.00 1185.00 L 342.00 1184.00 L 342.00 1179.00 L 341.00 1175.00 L 342.00 1153.00 L 341.00 1147.00 L 340.00 1144.00 L 338.00 1141.00 L 335.00 1138.00 L 331.00 1136.00 L 325.00 1135.00 L 318.00 1136.00 L 316.00 1137.00 L 314.00 1139.00 L 313.00 1139.00 L 312.00 1141.00 L 309.00 1141.00 L 308.00 1136.00 L 301.00 1136.00 L 300.00 1137.00 Z" fill="#ffffff" fill-rule="evenodd"/>
    <path d="M 263.00 1117.00 L 217.00 1117.00 L 217.00 1185.00 L 229.00 1184.00 L 230.00 1157.00 L 259.00 1157.00 L 259.00 1147.00 L 229.00 1146.00 L 230.00 1128.00 L 263.00 1128.00 Z" fill="#ffffff" fill-rule="evenodd"/>
    <path d="M 1061.00 1116.00 L 1050.00 1116.00 L 1048.00 1141.00 L 1045.00 1138.00 L 1041.00 1136.00 L 1037.00 1136.00 L 1036.00 1135.00 L 1033.00 1135.00 L 1032.00 1136.00 L 1028.00 1136.00 L 1022.00 1139.00 L 1017.00 1144.00 L 1014.00 1150.00 L 1013.00 1154.00 L 1013.00 1167.00 L 1014.00 1171.00 L 1017.00 1177.00 L 1023.00 1183.00 L 1027.00 1185.00 L 1032.00 1186.00 L 1037.00 1186.00 L 1041.00 1185.00 L 1050.00 1181.00 L 1050.00 1185.00 L 1061.00 1185.00 Z M 1033.00 1146.00 L 1042.00 1146.00 L 1045.00 1148.00 L 1047.00 1150.00 L 1049.00 1153.00 L 1050.00 1156.00 L 1050.00 1166.00 L 1048.00 1170.00 L 1043.00 1175.00 L 1039.00 1176.00 L 1034.00 1176.00 L 1030.00 1174.00 L 1027.00 1171.00 L 1025.00 1167.00 L 1024.00 1163.00 L 1024.00 1159.00 L 1025.00 1155.00 L 1026.00 1152.00 L 1031.00 1147.00 Z" fill="#ffffff" fill-rule="evenodd"/>
    <path d="M 868.00 1116.00 L 857.00 1116.00 L 857.00 1185.00 L 868.00 1184.00 Z" fill="#ffffff" fill-rule="evenodd"/>
    <path d="M 650.00 1116.00 L 643.00 1118.00 L 636.00 1123.00 L 632.00 1131.00 L 632.00 1140.00 L 634.00 1145.00 L 638.00 1150.00 L 646.00 1154.00 L 658.00 1157.00 L 663.00 1159.00 L 667.00 1163.00 L 667.00 1170.00 L 663.00 1174.00 L 661.00 1175.00 L 651.00 1175.00 L 645.00 1172.00 L 642.00 1168.00 L 639.00 1166.00 L 630.00 1172.00 L 633.00 1177.00 L 636.00 1180.00 L 641.00 1183.00 L 651.00 1186.00 L 660.00 1186.00 L 668.00 1184.00 L 673.00 1181.00 L 676.00 1178.00 L 679.00 1172.00 L 680.00 1168.00 L 680.00 1162.00 L 677.00 1155.00 L 673.00 1151.00 L 665.00 1147.00 L 653.00 1144.00 L 647.00 1141.00 L 644.00 1136.00 L 644.00 1134.00 L 645.00 1132.00 L 649.00 1128.00 L 651.00 1127.00 L 659.00 1127.00 L 662.00 1128.00 L 664.00 1130.00 L 665.00 1130.00 L 669.00 1135.00 L 678.00 1129.00 L 677.00 1126.00 L 671.00 1120.00 L 665.00 1117.00 L 661.00 1116.00 Z" fill="#ffffff" fill-rule="evenodd"/>
    <path d="M 932.00 1116.00 L 928.00 1116.00 L 927.00 1115.00 L 923.00 1115.00 L 918.00 1116.00 L 914.00 1118.00 L 911.00 1121.00 L 909.00 1125.00 L 907.00 1136.00 L 901.00 1137.00 L 900.00 1145.00 L 908.00 1147.00 L 909.00 1185.00 L 920.00 1184.00 L 919.00 1179.00 L 921.00 1146.00 L 931.00 1146.00 L 930.00 1136.00 L 919.00 1134.00 L 920.00 1129.00 L 924.00 1125.00 L 931.00 1126.00 L 931.00 1122.00 L 932.00 1121.00 Z" fill="#ffffff" fill-rule="evenodd"/>
    <path d="M 941.00 1115.00 L 938.00 1118.00 L 938.00 1125.00 L 941.00 1128.00 L 948.00 1128.00 L 951.00 1125.00 L 952.00 1123.00 L 952.00 1120.00 L 951.00 1118.00 L 948.00 1115.00 L 946.00 1114.00 L 944.00 1114.00 Z" fill="#ffffff" fill-rule="evenodd"/>
    <path d="M 881.00 1116.00 L 880.00 1117.00 L 879.00 1119.00 L 879.00 1124.00 L 880.00 1126.00 L 881.00 1127.00 L 883.00 1128.00 L 890.00 1128.00 L 892.00 1126.00 L 893.00 1124.00 L 893.00 1119.00 L 892.00 1117.00 L 890.00 1115.00 L 887.00 1114.00 L 885.00 1114.00 Z" fill="#ffffff" fill-rule="evenodd"/>
    <path d="M 694.00 1114.00 L 692.00 1115.00 L 689.00 1118.00 L 688.00 1120.00 L 688.00 1123.00 L 689.00 1125.00 L 692.00 1128.00 L 699.00 1128.00 L 702.00 1125.00 L 703.00 1123.00 L 703.00 1120.00 L 702.00 1118.00 L 699.00 1115.00 L 697.00 1114.00 Z" fill="#ffffff" fill-rule="evenodd"/>
    <path d="M 276.00 1115.00 L 274.00 1117.00 L 273.00 1119.00 L 273.00 1125.00 L 276.00 1128.00 L 283.00 1128.00 L 285.00 1127.00 L 286.00 1126.00 L 287.00 1124.00 L 287.00 1119.00 L 286.00 1117.00 L 284.00 1115.00 L 281.00 1114.00 L 279.00 1114.00 Z" fill="#ffffff" fill-rule="evenodd"/>
  </g>

</svg>
